<?xml version="1.0" standalone="no"?>
<!DOCTYPE svg PUBLIC "-//W3C//DTD SVG 20010904//EN"
 "http://www.w3.org/TR/2001/REC-SVG-20010904/DTD/svg10.dtd">
<svg version="1.0" xmlns="http://www.w3.org/2000/svg"
 width="500.000000pt" height="500.000000pt" viewBox="0 0 500.000000 500.000000"
 preserveAspectRatio="xMidYMid meet">
<metadata>
Created by potrace 1.11, written by Peter Selinger 2001-2013
</metadata>
<g transform="translate(0.000000,500.000000) scale(0.100000,-0.100000)"
fill="#000000" stroke="none">
<path d="M0 2500 l0 -2500 2500 0 2500 0 0 2500 0 2500 -2500 0 -2500 0 0
-2500z m947 1415 c201 -47 347 -192 399 -396 24 -95 15 -262 -19 -352 -67
-173 -200 -290 -378 -332 -45 -10 -120 -15 -256 -15 l-193 0 0 555 0 555 193
0 c133 0 211 -5 254 -15z m1111 -24 c74 -40 115 -84 151 -161 23 -48 26 -68
26 -155 0 -89 -3 -107 -29 -162 -33 -72 -95 -135 -162 -164 -24 -11 -44 -22
-44 -24 0 -2 64 -89 143 -192 79 -103 147 -194 151 -200 6 -10 -25 -13 -142
-13 l-150 0 -128 197 -129 197 -3 -197 -2 -197 -120 0 -120 0 0 556 0 556 248
-4 247 -3 63 -34z m552 -516 l0 -555 -120 0 -120 0 0 555 0 555 120 0 120 0 0
-555z m414 362 c38 -105 102 -284 142 -397 40 -113 75 -198 78 -190 3 8 19 53
35 100 15 47 77 219 136 383 l108 297 128 0 c71 0 129 -1 129 -2 0 -2 -98
-250 -218 -553 l-218 -550 -105 -3 -104 -2 -212 537 c-117 296 -215 546 -219
556 -6 16 4 17 122 17 l129 0 69 -193z m1476 83 l0 -110 -195 0 -195 0 0 -110
0 -110 185 0 185 0 0 -110 0 -110 -185 0 -185 0 0 -115 0 -115 195 0 195 0 0
-110 0 -110 -315 0 -315 0 0 555 0 555 315 0 315 0 0 -110z m-3663 -1665 c201
-47 347 -192 399 -396 24 -95 15 -262 -19 -352 -67 -173 -200 -290 -378 -332
-45 -10 -120 -15 -256 -15 l-193 0 0 555 0 555 193 0 c133 0 211 -5 254 -15z
m1111 -24 c74 -40 115 -84 151 -161 23 -48 26 -68 26 -155 0 -89 -3 -107 -29
-162 -33 -72 -95 -135 -162 -165 -25 -11 -44 -23 -42 -27 10 -24 282 -370 287
-365 3 3 101 245 217 537 l211 532 104 0 104 0 217 -545 c119 -300 217 -549
218 -553 0 -4 -57 -6 -127 -5 l-128 3 -23 65 c-12 36 -29 84 -38 108 l-16 42
-208 0 -208 0 -38 -110 -38 -110 -267 0 -267 0 -128 197 -129 197 -3 -197 -2
-197 -120 0 -120 0 0 556 0 556 248 -4 247 -3 63 -34z m1621 -278 c71 -427 73
-435 78 -429 2 2 51 170 107 373 l103 368 118 0 119 0 98 -350 c53 -192 100
-361 104 -375 l7 -25 8 30 c4 17 33 186 65 378 l57 347 133 0 c102 0 132 -3
129 -12 -2 -7 -50 -257 -106 -555 l-103 -543 -143 0 c-79 0 -143 2 -143 3 0 9
-220 760 -223 763 -2 2 -47 -146 -101 -328 -53 -183 -104 -357 -112 -385 l-16
-53 -142 0 -142 0 -83 438 c-46 240 -93 490 -106 555 l-22 117 132 0 132 0 52
-317z"/>
<path d="M740 3375 l0 -338 73 5 c151 10 249 87 291 228 20 68 20 142 0 210
-41 140 -138 216 -290 227 l-74 6 0 -338z"/>
<path d="M1740 3575 l0 -165 78 0 c56 0 87 5 112 19 102 54 107 222 10 289
-28 18 -46 22 -116 22 l-84 0 0 -165z"/>
<path d="M630 1615 l0 -338 73 5 c151 10 249 87 291 228 20 68 20 142 0 210
-41 140 -138 216 -290 227 l-74 6 0 -338z"/>
<path d="M1630 1815 l0 -165 78 0 c56 0 87 5 112 19 102 54 107 222 10 289
-28 18 -46 22 -116 22 l-84 0 0 -165z"/>
<path d="M2639 1673 l-65 -188 68 -3 c37 -2 99 -2 136 0 l68 3 -64 188 c-36
103 -68 187 -71 187 -4 0 -36 -84 -72 -187z"/>
</g>
</svg>
